<?xml version="1.0" ?><svg height="50px" version="1.1" viewBox="0 0 44 58" width="44px" xmlns="http://www.w3.org/2000/svg" xmlns:xlink="http://www.w3.org/1999/xlink"><title/><desc/><defs/><g fill="none" fill-rule="evenodd" id="Page-1" stroke="none" stroke-width="1"><g id="Grooming-Flat" transform="translate(-491.000000, -1380.000000)"><g id="84--Apply-Nail-Polish--(grooming,-hair,-saloon,-hygiene,-beauty,-style)" transform="translate(491.000000, 1380.000000)"><path d="M39,25.7131 L39,37.7941 C39,42.3261 35.326,46.0001 30.795,46.0001 L27.205,46.0001 C22.674,46.0001 19,42.3261 19,37.7941 L19,25.7131 C15.996,27.6381 14,30.9981 14,34.8311 L14,48.0001 C14,53.5231 18.477,58.0001 24,58.0001 L34,58.0001 C39.523,58.0001 44,53.5231 44,48.0001 L44,34.8311 C44,30.9981 42.004,27.6381 39,25.7131" fill="#FABA81" id="Fill-840"/><path d="M19.562,24.6227 L19.607,24.5717 C20.397,23.6807 21.858,24.0047 22.197,25.1457 L22.217,25.2117 C22.667,26.7257 24.842,26.6297 25.158,25.0827 L25.172,25.0157 C25.41,23.8487 26.838,23.3997 27.702,24.2187 L27.751,24.2657 C28.897,25.3537 30.735,24.1837 30.235,22.6857 L30.213,22.6197 C29.837,21.4907 30.848,20.3867 32.006,20.6637 L32.072,20.6797 C33.607,21.0457 34.612,19.1157 33.431,18.0677 L33.38,18.0227 C32.49,17.2327 32.814,15.7717 33.955,15.4327 L34.02,15.4137 C35.535,14.9627 35.439,12.7867 33.89,12.4717 L33.826,12.4587 C32.659,12.2207 32.208,10.7927 33.028,9.9277 L33.075,9.8787 C34.161,8.7327 32.992,6.8957 31.494,7.3947 L31.428,7.4167 C30.298,7.7937 29.195,6.7817 29.472,5.6247 L29.488,5.5587 C29.49,5.5497 29.492,5.5407 29.494,5.5317 C29.752,4.3867 28.595,3.4187 27.476,3.7717 L17.853,9.1247 L15.812,13.0457 L16.944,23.9987 C17.297,25.1177 18.754,25.5107 19.544,24.6427 C19.55,24.6367 19.556,24.6297 19.562,24.6227" fill="#ECE8D8" id="Fill-842"/><path d="M30,13 L21,13 L26,20" id="Stroke-843" stroke="#C9B693" stroke-linecap="round" stroke-linejoin="round" stroke-width="2"/><path d="M1,2 L1,2 C1.926,0.222 4.15,-0.42 5.881,0.591 L17.853,9.125 L15.812,13.045 L2.645,6.807 C0.824,5.969 0.074,3.778 1,2" fill="#434C6D" id="Fill-844"/><path d="M33.0163,9.9438 C32.2163,10.8098 32.6653,12.2218 33.8263,12.4588 L33.8903,12.4718 C35.4383,12.7868 35.5343,14.9628 34.0203,15.4128 L33.9553,15.4328 C32.8143,15.7718 32.4903,17.2328 33.3803,18.0228 L33.4313,18.0678 C34.6123,19.1158 33.6073,21.0458 32.0713,20.6798 L32.0053,20.6638 C30.8473,20.3868 29.8363,21.4908 30.2133,22.6198 L30.2353,22.6858 C30.7343,24.1838 28.8973,25.3528 27.7513,24.2658 L27.7023,24.2188 C26.8383,23.3988 25.4103,23.8488 25.1713,25.0158 L25.1583,25.0818 C24.8423,26.6298 22.6663,26.7248 22.2163,25.2108 L22.1973,25.1458 C21.8573,24.0048 20.3963,23.6808 19.6073,24.5718 L19.5623,24.6228 C19.5563,24.6298 19.5503,24.6358 19.5433,24.6428 C19.4763,24.7168 19.3983,24.7698 19.3223,24.8258 C18.8363,29.0248 19.0003,33.0768 19.0003,36.8658 L19.0003,37.7948 C19.0003,42.3258 22.6733,45.9998 27.2053,45.9998 L30.7943,45.9998 C35.3263,45.9998 39.0003,42.3258 39.0003,37.7948 L39.0003,36.8658 C39.0003,28.6188 40.0373,20.0108 33.0163,9.9438" fill="#D75D72" id="Fill-848"/></g></g></g></svg>