<?xml version="1.0" ?><svg id="Layer_1" style="enable-background:new 0 0 49 49;" version="1.1" viewBox="0 0 49 49" height="50px" xml:space="preserve" xmlns="http://www.w3.org/2000/svg" xmlns:xlink="http://www.w3.org/1999/xlink"><style type="text/css">
	.st0{fill:#FAA31B;}
	.st1{fill:#FDB814;}
	.st2{fill:#231F20;}
	.st3{fill:#E34C4C;}
	.st4{fill:#52C4E8;}
	.st5{fill:#FFFFFF;}
	.st6{opacity:0.15;}
	.st7{fill:#333333;}
	.st8{fill:#7A7A7A;}
	.st9{fill:#FECF12;}
	.st10{fill:#F68C1F;}
	.st11{fill:#E1549E;}
	.st12{fill:#E9E9E9;}
	.st13{opacity:0.3;}
	.st14{fill:#D2D3D3;}
	.st15{fill:#CD4443;}
	.st16{fill:#48B0CF;}
	.st17{fill:#545B5C;}
	.st18{fill:#8852A1;}
	.st19{fill:none;}
	.st20{opacity:0.35;}
</style><g><g><path class="st8" d="M25.8,1.2h-2.6c-2.2,0-4,1.8-4,4V21h10.6V5.2C29.8,3,28,1.2,25.8,1.2z"/></g><g><path class="st17" d="M29.8,5.2c0-2.2-1.8-4-4-4h-1.4V21h5.3V5.2z"/></g><g><path class="st4" d="M32.4,47.8H16.6c-2.2,0-4-1.8-4-4V25c0-2.2,1.8-4,4-4h15.9c2.2,0,4,1.8,4,4v18.8C36.4,46,34.6,47.8,32.4,47.8    z"/></g><g><path class="st7" d="M32.5,48.5H16.5c-2.6,0-4.7-2.1-4.7-4.7V24.9c0-2.6,2.1-4.7,4.7-4.7h15.9c2.6,0,4.7,2.1,4.7,4.7v18.9    C37.2,46.4,35.1,48.5,32.5,48.5z M16.5,21.7c-1.8,0-3.2,1.4-3.2,3.2v18.9c0,1.8,1.4,3.2,3.2,3.2h15.9c1.8,0,3.2-1.4,3.2-3.2V24.9    c0-1.8-1.4-3.2-3.2-3.2H16.5z"/></g><g><path class="st7" d="M29.8,21.7H19.2c-0.4,0-0.7-0.3-0.7-0.7V5.2c0-2.6,2.1-4.7,4.7-4.7h2.7c2.6,0,4.7,2.1,4.7,4.7V21    C30.6,21.4,30.2,21.7,29.8,21.7z M19.9,20.2h9.2v-15c0-1.8-1.4-3.2-3.2-3.2h-2.7c-1.8,0-3.2,1.4-3.2,3.2V20.2z"/></g><g><rect class="st3" height="11.9" width="14.3" x="17.4" y="28.4"/></g><g><path class="st7" d="M31.6,41.1H17.4c-0.4,0-0.7-0.3-0.7-0.7V28.4c0-0.4,0.3-0.7,0.7-0.7h14.3c0.4,0,0.7,0.3,0.7,0.7v11.9    C32.4,40.7,32.1,41.1,31.6,41.1z M18.1,39.6h12.8V29.1H18.1V39.6z"/></g><g class="st6"><path class="st7" d="M32.6,42.1H18.3c-0.4,0-0.7-0.3-0.7-0.7V29.4c0-0.4,0.3-0.7,0.7-0.7h14.3c0.4,0,0.7,0.3,0.7,0.7v11.9    C33.4,41.7,33,42.1,32.6,42.1z M19.1,40.6h12.8V30.1H19.1V40.6z"/></g><g class="st6"><rect class="st7" height="2" width="10.6" x="19.2" y="19"/></g><g><g><g><path class="st5" d="M14.9,42.8c-0.4,0-0.7-0.3-0.7-0.7v-7.7c0-0.4,0.3-0.7,0.7-0.7c0.4,0,0.7,0.3,0.7,0.7v7.7      C15.6,42.5,15.3,42.8,14.9,42.8z"/></g></g><g><g><path class="st5" d="M14.9,32.8c-0.4,0-0.7-0.3-0.7-0.7v-1.6c0-0.4,0.3-0.7,0.7-0.7c0.4,0,0.7,0.3,0.7,0.7v1.6      C15.6,32.5,15.3,32.8,14.9,32.8z"/></g></g></g></g></svg>