<?xml version="1.0" ?><svg id="Layer_1" style="enable-background:new 0 0 512 512;" version="1.1" viewBox="0 0 512 512" height="55px" xml:space="preserve" xmlns="http://www.w3.org/2000/svg" xmlns:xlink="http://www.w3.org/1999/xlink"><g><path d="M182.691,247.719h146.618c7.185,0,13.152,5.967,13.152,13.152   v212.377c0,7.185-5.967,13.152-13.152,13.152H182.691c-7.185,0-13.152-5.967-13.152-13.152V260.871   C169.539,253.686,175.506,247.719,182.691,247.719L182.691,247.719z" style="fill-rule:evenodd;clip-rule:evenodd;fill:#7C150B;"/><path d="M202.905,247.719h106.189c5.236,0,9.62,4.262,9.62,9.499   v219.684c0,5.236-4.384,9.498-9.62,9.498H202.905c-5.236,0-9.498-4.262-9.498-9.498V257.218   C193.407,251.982,197.669,247.719,202.905,247.719L202.905,247.719z" style="fill-rule:evenodd;clip-rule:evenodd;fill:#AF1E11;"/><rect height="9.255" style="fill-rule:evenodd;clip-rule:evenodd;fill:#7C150B;" width="80.859" x="215.571" y="238.464"/><path d="M221.416,25.6c23.015,0,46.031,0,69.047,0   c5.724,0,10.595,4.75,10.717,10.595c1.461,67.342,3.044,134.806,4.506,202.269c-33.123,0-66.246,0-99.369,0   c1.583-67.464,3.044-134.928,4.506-202.391C210.943,30.35,215.814,25.6,221.416,25.6L221.416,25.6z" style="fill-rule:evenodd;clip-rule:evenodd;fill:#141515;"/><rect height="93.037" style="fill-rule:evenodd;clip-rule:evenodd;fill:#141515;" width="15.1" x="248.45" y="247.719"/><polygon points="248.937,340.756 256,340.756 263.063,340.756    269.883,380.699 256,380.699 242.117,380.699  " style="fill-rule:evenodd;clip-rule:evenodd;fill:#293134;"/><path d="M229.331,25.6c17.779,0,35.559,0,53.338,0   c4.384,0,8.037,4.75,8.159,10.595c1.096,67.342,2.314,134.806,3.531,202.269c-25.573,0-51.146,0-76.597,0   c1.096-67.464,2.314-134.928,3.409-202.391C221.294,30.35,224.947,25.6,229.331,25.6L229.331,25.6z" style="fill-rule:evenodd;clip-rule:evenodd;fill:#313130;"/><rect height="9.255" style="fill-rule:evenodd;clip-rule:evenodd;fill:#141515;" width="19.606" x="246.258" y="238.464"/></g></svg>