<?xml version="1.0" ?><!DOCTYPE svg  PUBLIC '-//W3C//DTD SVG 1.1//EN'  'http://www.w3.org/Graphics/SVG/1.1/DTD/svg11.dtd'><svg height="130px" style="shape-rendering:geometricPrecision; text-rendering:geometricPrecision; image-rendering:optimizeQuality; fill-rule:evenodd; clip-rule:evenodd" version="1.1" viewBox="0 0 4335 4335" width="43.3492mm" xml:space="preserve" xmlns="http://www.w3.org/2000/svg" xmlns:xlink="http://www.w3.org/1999/xlink"><defs><style type="text/css">
   <![CDATA[
    .fil0 {fill:#00CCFF}
    .fil1 {fill:#CCCCCC}
   ]]>
  </style></defs><g id="Layer_x0020_1"><g id="_557606096"><path class="fil0" d="M2283 123c722,0 1307,585 1307,1307 0,536 -323,997 -784,1198l0 622c0,87 -71,159 -159,159l-728 0c-87,0 -159,-71 -159,-159l0 -622c-462,-202 -784,-662 -784,-1198 0,-722 585,-1307 1307,-1307z"/><path class="fil1" d="M1915 3541l736 0c96,0 175,79 175,175l0 0c0,294 -241,535 -535,535l-16 0c-294,0 -535,-241 -535,-535l0 0c0,-96 79,-175 175,-175z"/></g></g></svg>