<svg xmlns="http://www.w3.org/2000/svg" viewBox="0 -5 30 60" height="60px">
  <title>Asset 2</title>
  <g id="Layer_2" data-name="Layer 2">
    <g id="Layer_1-2" data-name="Layer 1">
      <g>
        <path d="M28.2,23.757V44.17265a1.37956,1.37956,0,0,1-1.35859,1.35859H2.093A1.37956,1.37956,0,0,1,.73438,44.17265V23.757A1.37956,1.37956,0,0,1,2.093,22.39844H5.80156A2.445,2.445,0,0,0,8.225,19.975H20.70938a2.445,2.445,0,0,0,2.42344,2.42344h3.70859A1.33287,1.33287,0,0,1,28.2,23.757Z" style="fill: #efebea"/>
        <g style="opacity: 0.15000000596046448">
          <path d="M1.46875,25.96016V24.49141a.64345.64345,0,0,1,.62422-.62422H5.80156a3.14431,3.14431,0,0,0,3.04766-2.42344H20.04844a3.14431,3.14431,0,0,0,3.04766,2.42344h3.70859a.64345.64345,0,0,1,.62422.62422v1.46875h1.46875V24.49141a2.116,2.116,0,0,0-2.093-2.093H23.13281a1.68455,1.68455,0,0,1-1.68906-1.68906.73653.73653,0,0,0-.73437-.73437H8.225a.73653.73653,0,0,0-.73437.73438,1.68455,1.68455,0,0,1-1.68906,1.68906H2.093A2.116,2.116,0,0,0,0,24.49141v1.46875Z" style="fill: #231f20"/>
        </g>
        <path d="M26.84141,46.26563H2.093A2.116,2.116,0,0,1,0,44.17266V23.757a2.116,2.116,0,0,1,2.093-2.093H5.80156A1.68455,1.68455,0,0,0,7.49063,19.975a.73653.73653,0,0,1,.73438-.73437H20.70938a.73653.73653,0,0,1,.73438.73438,1.68455,1.68455,0,0,0,1.68906,1.68906h3.70859a2.116,2.116,0,0,1,2.093,2.093V44.17265A2.092,2.092,0,0,1,26.84141,46.26563ZM2.093,23.13281a.64345.64345,0,0,0-.62422.62422V44.17265a.64345.64345,0,0,0,.62422.62422H26.87813a.64345.64345,0,0,0,.62422-.62422V23.757a.64345.64345,0,0,0-.62422-.62422H23.13281a3.14431,3.14431,0,0,1-3.04766-2.42344H8.84922a3.14431,3.14431,0,0,1-3.04766,2.42344Z" style="fill: #231f20"/>
        <path d="M25.2625,39.87656V25.33594H23.13281a5.32519,5.32519,0,0,1-4.47969-2.42344H10.28125a5.32519,5.32519,0,0,1-4.47969,2.42344H3.67188V39.87656Z" style="fill: #74c9f1"/>
        <g style="opacity: 0.15000000596046448">
          <path d="M4.03906,27.83281V26.4375h1.7625a5.61461,5.61461,0,0,0,4.66328-2.42344h8.00469a5.70931,5.70931,0,0,0,4.66328,2.42344h1.7625v1.39531h.73438v-1.7625a.34691.34691,0,0,0-.36719-.36719H23.13281a4.94781,4.94781,0,0,1-4.14922-2.23984.334.334,0,0,0-.29375-.14688H10.28125a.45329.45329,0,0,0-.29375.14688,5.06054,5.06054,0,0,1-4.18594,2.23984H3.67188a.34691.34691,0,0,0-.36719.36719v1.7625Z" style="fill: #231f20"/>
        </g>
        <path d="M25.2625,40.24375H3.67188a.34691.34691,0,0,1-.36719-.36719V25.33594a.34691.34691,0,0,1,.36719-.36719H5.80156a4.9478,4.9478,0,0,0,4.14922-2.23984.334.334,0,0,1,.29375-.14688h8.40859a.45329.45329,0,0,1,.29375.14688,5.06054,5.06054,0,0,0,4.18594,2.23984H25.2625a.34691.34691,0,0,1,.36719.36719V39.87656A.368.368,0,0,1,25.2625,40.24375ZM4.03906,39.50937H24.89531V25.70313h-1.7625a5.61461,5.61461,0,0,1-4.66328-2.42344H10.46484a5.70931,5.70931,0,0,1-4.66328,2.42344H4.03906Z" style="fill: #231f20"/>
        <rect x="10.28125" y="16.78047" width="8.37187" height="3.19453" style="fill: #485762"/>
        <path d="M18.65313,20.70938H10.28125a.73653.73653,0,0,1-.73437-.73437V16.78047a.73653.73653,0,0,1,.73438-.73437h8.37187a.73653.73653,0,0,1,.73438.73438V19.975A.73653.73653,0,0,1,18.65313,20.70938Zm-7.6375-1.46875h6.90312V17.51484H11.01563Z" style="fill: #231f20"/>
        <path d="M18.94687.73438H9.91406A1.68455,1.68455,0,0,0,8.225,2.42344V16.74375H20.67266V2.42344A1.71635,1.71635,0,0,0,18.94687.73438Z" style="fill: #eeeded"/>
        <g style="opacity: 0.15000000596046448">
          <path d="M8.95938,4.07578V3.525a.948.948,0,0,1,.95469-.95469h9.03281a.948.948,0,0,1,.95469.95469v.55078h1.46875V3.525a2.42108,2.42108,0,0,0-2.42344-2.42344H9.91406A2.42108,2.42108,0,0,0,7.49063,3.525v.55078Z" style="fill: #231f20"/>
        </g>
        <path d="M20.67266,17.51484H8.225a.73653.73653,0,0,1-.73437-.73437V2.46016A2.42923,2.42923,0,0,1,9.91406,0h9.03281a2.42108,2.42108,0,0,1,2.42344,2.42344V16.74375A.69564.69564,0,0,1,20.67266,17.51484ZM8.95938,16.04609H19.93828V2.46016a.948.948,0,0,0-.95469-.95469H9.91406a.89678.89678,0,0,0-.95469.918Z" style="fill: #231f20"/>
        <path d="M10.79531,10.09766a.34691.34691,0,0,1-.36719-.36719V3.30469a.34691.34691,0,0,1,.36719-.36719h4.33281a.34691.34691,0,0,1,.36719.36719.34691.34691,0,0,1-.36719.36719H11.1625V9.73047A.368.368,0,0,1,10.79531,10.09766Z" style="fill: #fff"/>
        <g style="opacity: 0.15000000596046448">
          <path d="M16.41328,25.66641a.355.355,0,0,0-.51406,0l-3.59844,3.59844a.355.355,0,0,0,0,.51406.35495.35495,0,0,0,.51406,0l3.59844-3.59844A.355.355,0,0,0,16.41328,25.66641Z" style="fill: #231f20"/>
          <path d="M14.32031,29.118l-2.75391,2.75391a.355.355,0,0,0,0,.51406.35495.35495,0,0,0,.51406,0L14.83438,29.632a.3635.3635,0,0,0-.51406-.51406Z" style="fill: #231f20"/>
        </g>
      </g>
    </g>
  </g>
</svg>
