<svg 
 xmlns="http://www.w3.org/2000/svg"
 xmlns:xlink="http://www.w3.org/1999/xlink"
 width="38px" height="47px">
<path fill-rule="evenodd"  fill="rgb(255, 255, 255)"
 d="M37.570,40.146 C37.341,40.469 36.765,41.321 36.133,42.259 C35.193,43.653 34.221,45.093 33.878,45.552 C33.463,46.094 32.493,46.985 30.563,46.985 C29.908,46.984 29.190,46.879 28.429,46.672 C25.544,45.862 17.099,41.227 11.886,35.610 L11.516,35.241 C5.906,29.993 1.314,21.541 0.534,18.676 C-0.405,15.233 0.989,13.712 1.632,13.218 C2.108,12.853 3.680,11.788 5.068,10.849 C5.943,10.256 6.722,9.730 7.027,9.511 C7.393,9.244 7.787,9.107 8.195,9.107 C8.889,9.107 9.427,9.520 9.713,9.914 L16.488,17.091 C16.559,17.167 16.619,17.253 16.665,17.347 C16.918,17.856 17.121,18.966 16.274,19.886 C15.833,20.379 14.147,22.602 13.536,23.417 C13.498,23.468 13.456,23.514 13.410,23.556 C13.447,23.542 13.319,23.789 13.638,24.437 C14.248,25.707 15.569,27.635 16.924,28.881 L18.223,30.187 C19.348,31.411 21.248,32.827 22.671,33.509 C23.426,33.880 23.628,33.685 23.633,33.681 C23.677,33.633 23.657,33.654 23.709,33.615 C24.518,33.005 26.726,31.320 27.223,30.868 C27.658,30.472 28.194,30.261 28.770,30.261 C29.270,30.261 29.639,30.420 29.740,30.468 C29.838,30.516 29.929,30.578 30.008,30.654 L37.172,37.461 C37.393,37.624 37.810,38.009 37.935,38.627 C38.008,38.986 38.003,39.539 37.570,40.146 ZM28.760,32.366 C28.719,32.367 28.685,32.380 28.633,32.426 C27.998,33.004 25.472,34.917 25.014,35.263 C24.795,35.458 24.268,35.828 23.417,35.828 C22.892,35.828 22.334,35.686 21.758,35.404 C20.082,34.600 18.002,33.053 16.708,31.643 L15.472,30.399 C14.115,29.154 12.572,27.067 11.753,25.360 C10.963,23.759 11.437,22.601 11.901,22.097 C12.268,21.608 14.157,19.100 14.724,18.470 C14.765,18.425 14.783,18.385 14.789,18.352 L8.132,11.300 C8.126,11.294 8.120,11.288 8.114,11.281 C7.791,11.543 7.058,12.040 6.242,12.593 C4.946,13.470 3.334,14.562 2.907,14.889 C2.669,15.073 1.937,15.848 2.559,18.121 C3.199,20.473 7.514,28.619 12.973,33.727 L13.395,34.149 C18.473,39.618 26.621,43.980 28.987,44.643 C29.561,44.800 30.094,44.880 30.563,44.880 C31.594,44.880 32.036,44.504 32.208,44.280 C32.512,43.872 33.557,42.324 34.396,41.080 C34.977,40.219 35.510,39.429 35.782,39.038 L28.760,32.366 ZM21.472,6.811 C19.403,4.733 16.785,3.408 13.900,2.979 L14.208,0.897 C17.542,1.394 20.566,2.924 22.956,5.324 C25.344,7.723 26.870,10.757 27.368,14.097 L25.293,14.409 C24.863,11.516 23.541,8.889 21.472,6.811 ZM21.722,14.951 L19.646,15.257 C19.399,13.585 18.635,12.065 17.436,10.861 C16.237,9.659 14.720,8.890 13.051,8.640 L13.362,6.559 C15.478,6.877 17.401,7.850 18.920,9.374 C20.440,10.899 21.409,12.827 21.722,14.951 Z"/>
</svg>