<svg 
 xmlns="http://www.w3.org/2000/svg"
 xmlns:xlink="http://www.w3.org/1999/xlink"
 width="28px" height="23px">
<path fill-rule="evenodd"  fill="rgb(255, 255, 255)"
 d="M25.641,0.290 L1.470,9.420 C0.148,9.801 0.190,11.103 1.168,11.416 L7.224,13.302 L9.541,20.390 C9.823,21.165 10.053,21.458 10.534,21.464 C11.040,21.471 11.234,21.287 11.758,20.824 C12.373,20.248 13.310,19.341 14.789,17.906 L21.089,22.550 C22.249,23.187 23.085,22.857 23.374,21.475 L27.324,1.986 C27.747,0.293 26.750,-0.213 25.641,0.290 ZM8.174,12.869 L21.944,4.251 C22.622,3.797 22.834,4.303 22.528,4.654 L11.101,14.907 L10.514,20.026 L8.174,12.869 Z"/>
</svg>