<svg 
 xmlns="http://www.w3.org/2000/svg"
 xmlns:xlink="http://www.w3.org/1999/xlink"
 width="27px" height="26px">
<path fill-rule="evenodd"  fill="rgb(255, 255, 255)"
 d="M13.734,25.330 C11.513,25.330 9.427,24.757 7.612,23.754 L0.600,25.999 L2.886,19.204 C1.733,17.295 1.068,15.057 1.068,12.665 C1.068,5.669 6.739,-0.001 13.734,-0.001 C20.729,-0.001 26.399,5.669 26.399,12.665 C26.399,19.659 20.729,25.330 13.734,25.330 ZM13.734,2.121 C7.920,2.121 3.190,6.851 3.190,12.665 C3.190,14.972 3.936,17.108 5.198,18.846 L3.881,22.761 L7.933,21.465 C9.598,22.565 11.593,23.207 13.734,23.207 C19.548,23.207 24.278,18.478 24.278,12.665 C24.278,6.851 19.548,2.121 13.734,2.121 ZM17.792,18.928 C17.198,18.959 17.180,19.391 13.942,17.974 C10.704,16.556 8.756,13.108 8.603,12.886 C8.449,12.665 7.348,11.084 7.408,9.494 C7.467,7.902 8.332,7.152 8.640,6.839 C8.948,6.527 9.302,6.459 9.518,6.467 C9.733,6.475 9.948,6.511 10.136,6.517 C10.325,6.525 10.598,6.427 10.843,7.084 C11.089,7.741 11.676,9.357 11.750,9.521 C11.825,9.686 11.872,9.877 11.756,10.089 C11.641,10.300 11.581,10.433 11.413,10.615 C11.244,10.798 11.057,11.024 10.907,11.163 C10.739,11.319 10.563,11.487 10.740,11.818 C10.916,12.148 11.526,13.231 12.455,14.124 C13.648,15.271 14.677,15.652 14.994,15.825 C15.312,16.000 15.501,15.980 15.698,15.771 C15.894,15.562 16.541,14.857 16.769,14.542 C16.997,14.227 17.210,14.289 17.503,14.408 C17.795,14.527 19.354,15.368 19.672,15.542 C19.989,15.716 20.202,15.805 20.277,15.943 C20.354,16.081 20.330,16.728 20.031,17.473 C19.734,18.216 18.386,18.896 17.792,18.928 Z"/>
</svg>