<svg 
 xmlns="http://www.w3.org/2000/svg"
 xmlns:xlink="http://www.w3.org/1999/xlink"
 width="40px" height="23px">
<path fill-rule="evenodd"  fill="rgb(255, 255, 255)"
 d="M19.452,22.010 L21.754,22.010 C21.754,22.010 22.450,21.932 22.805,21.548 C23.132,21.194 23.121,20.531 23.121,20.531 C23.121,20.531 23.077,17.426 24.510,16.969 C25.924,16.518 27.740,19.970 29.663,21.298 C31.118,22.301 32.224,22.082 32.224,22.082 L37.368,22.010 C37.368,22.010 40.060,21.842 38.784,19.716 C38.679,19.542 38.040,18.143 34.958,15.268 C31.732,12.259 32.164,12.745 36.050,7.541 C38.417,4.370 39.363,2.435 39.067,1.606 C38.786,0.817 37.045,1.025 37.045,1.025 L31.253,1.062 C31.253,1.062 30.823,1.003 30.504,1.193 C30.193,1.381 29.993,1.819 29.993,1.819 C29.993,1.819 29.076,4.271 27.854,6.358 C25.274,10.759 24.243,10.992 23.821,10.719 C22.840,10.081 23.086,8.160 23.086,6.795 C23.086,2.528 23.729,0.749 21.832,0.289 C21.202,0.136 20.738,0.036 19.128,0.019 C17.061,-0.002 15.312,0.025 14.321,0.513 C13.662,0.837 13.154,1.560 13.464,1.601 C13.847,1.652 14.713,1.836 15.173,2.465 C15.767,3.277 15.746,5.100 15.746,5.100 C15.746,5.100 16.088,10.121 14.949,10.745 C14.169,11.173 13.098,10.299 10.798,6.306 C9.620,4.260 8.730,1.999 8.730,1.999 C8.730,1.999 8.559,1.577 8.253,1.350 C7.882,1.076 7.363,0.989 7.363,0.989 L1.858,1.025 C1.858,1.025 1.032,1.048 0.729,1.410 C0.459,1.731 0.707,2.395 0.707,2.395 C0.707,2.395 5.016,12.528 9.896,17.635 C14.371,22.317 19.452,22.010 19.452,22.010 L19.452,22.010 L19.452,22.010 Z"/>
</svg>