<svg 
 xmlns="http://www.w3.org/2000/svg"
 xmlns:xlink="http://www.w3.org/1999/xlink"
 width="26px" height="28px">
<path fill-rule="evenodd"  fill="rgb(82, 56, 112)"
 d="M25.522,27.411 C25.168,27.783 24.673,27.997 24.165,27.997 L1.844,27.997 C1.334,27.997 0.838,27.783 0.484,27.411 C0.145,27.054 -0.027,26.594 -0.001,26.117 L1.057,7.222 C1.112,6.217 1.923,5.429 2.902,5.429 L7.767,5.429 L7.767,5.224 C7.767,2.350 10.116,0.012 13.004,0.012 C15.892,0.012 18.242,2.350 18.242,5.224 L18.242,5.429 L23.107,5.429 C24.085,5.429 24.896,6.216 24.952,7.222 L26.010,26.117 C26.036,26.593 25.863,27.052 25.522,27.411 ZM16.665,5.224 C16.665,3.215 15.023,1.581 13.004,1.581 C10.986,1.581 9.344,3.215 9.344,5.224 L9.344,5.429 L16.665,5.429 L16.665,5.224 ZM23.378,7.309 C23.369,7.156 23.266,6.998 23.107,6.998 L18.242,6.998 L18.242,8.668 C18.626,8.894 18.896,9.293 18.896,9.770 C18.896,10.488 18.311,11.071 17.589,11.071 C16.867,11.071 16.282,10.488 16.282,9.770 C16.282,9.411 16.429,9.085 16.665,8.850 L16.665,6.998 L9.344,6.998 L9.344,8.850 C9.580,9.085 9.727,9.411 9.727,9.770 C9.727,10.488 9.141,11.071 8.419,11.071 C7.697,11.071 7.112,10.488 7.112,9.770 C7.112,9.293 7.382,8.894 7.767,8.667 L7.767,6.998 L2.902,6.998 C2.737,6.998 2.640,7.158 2.631,7.309 L1.574,26.204 C1.571,26.259 1.603,26.304 1.630,26.333 C1.685,26.391 1.767,26.428 1.844,26.428 L24.165,26.428 C24.239,26.428 24.321,26.391 24.377,26.332 C24.400,26.308 24.438,26.259 24.435,26.203 L23.378,7.309 Z"/>
</svg>