<svg 
 xmlns="http://www.w3.org/2000/svg"
 xmlns:xlink="http://www.w3.org/1999/xlink"
 width="63px" height="63px">
<path fill-rule="evenodd"  fill="rgb(255, 234, 226)"
 d="M62.817,23.155 C57.776,22.856 47.622,23.120 39.876,23.255 C39.828,15.264 38.783,9.105 38.015,0.911 C32.398,7.361 25.660,19.712 25.660,19.712 C25.660,19.712 6.496,18.722 0.543,19.677 C7.629,25.745 11.981,29.508 18.685,34.972 C15.684,40.445 11.917,48.904 10.622,54.653 C17.309,51.368 24.616,48.531 31.386,45.784 C35.587,51.208 44.382,57.555 50.660,62.087 C50.152,55.522 45.916,39.569 45.916,39.569 C45.916,39.569 59.727,28.092 62.817,23.155 Z"/>
</svg>