<svg 
 xmlns="http://www.w3.org/2000/svg"
 xmlns:xlink="http://www.w3.org/1999/xlink"
 width="32px" height="32px">
<path fill-rule="evenodd"  fill="rgb(255, 255, 255)"
 d="M31.506,22.431 C31.430,24.092 31.166,25.226 30.781,26.218 C30.382,27.243 29.849,28.113 28.981,28.980 C28.114,29.848 27.244,30.382 26.218,30.780 C25.226,31.165 24.092,31.429 22.431,31.505 C20.767,31.581 20.236,31.599 15.999,31.599 C11.763,31.599 11.231,31.581 9.567,31.505 C7.907,31.429 6.773,31.165 5.781,30.780 C4.755,30.382 3.885,29.848 3.018,28.980 C2.150,28.113 1.616,27.243 1.218,26.218 C0.832,25.226 0.569,24.092 0.493,22.431 C0.417,20.767 0.399,20.236 0.399,15.999 C0.399,11.762 0.417,11.230 0.493,9.567 C0.569,7.907 0.832,6.773 1.218,5.780 C1.616,4.754 2.150,3.885 3.018,3.017 C3.885,2.150 4.755,1.616 5.781,1.218 C6.773,0.832 7.907,0.568 9.567,0.492 C11.231,0.417 11.763,0.398 15.999,0.398 C20.236,0.398 20.767,0.417 22.431,0.492 C24.092,0.568 25.226,0.832 26.218,1.218 C27.244,1.616 28.114,2.150 28.981,3.017 C29.849,3.885 30.382,4.754 30.781,5.780 C31.166,6.773 31.430,7.907 31.506,9.567 C31.581,11.230 31.600,11.762 31.600,15.999 C31.600,20.236 31.581,20.767 31.506,22.431 ZM28.698,9.695 C28.629,8.174 28.374,7.348 28.161,6.798 C27.878,6.070 27.540,5.551 26.994,5.004 C26.448,4.458 25.928,4.121 25.200,3.838 C24.651,3.624 23.824,3.370 22.303,3.301 C20.658,3.225 20.165,3.209 15.999,3.209 C11.834,3.209 11.340,3.225 9.696,3.301 C8.175,3.370 7.349,3.624 6.799,3.838 C6.070,4.121 5.551,4.458 5.005,5.004 C4.459,5.551 4.121,6.070 3.838,6.798 C3.625,7.348 3.370,8.174 3.301,9.695 C3.226,11.340 3.210,11.833 3.210,15.999 C3.210,20.164 3.226,20.657 3.301,22.302 C3.370,23.824 3.625,24.649 3.838,25.199 C4.121,25.928 4.459,26.447 5.005,26.993 C5.551,27.539 6.070,27.877 6.799,28.160 C7.349,28.374 8.175,28.628 9.696,28.697 C11.340,28.772 11.834,28.788 15.999,28.788 C20.165,28.788 20.658,28.772 22.303,28.697 C23.824,28.628 24.651,28.374 25.200,28.160 C25.928,27.877 26.448,27.539 26.994,26.993 C27.540,26.447 27.878,25.928 28.161,25.199 C28.374,24.649 28.629,23.824 28.698,22.302 C28.773,20.657 28.789,20.164 28.789,15.999 C28.789,11.833 28.773,11.340 28.698,9.695 ZM24.327,9.543 C23.293,9.543 22.455,8.705 22.455,7.671 C22.455,6.637 23.293,5.800 24.327,5.800 C25.360,5.800 26.199,6.637 26.199,7.671 C26.199,8.705 25.360,9.543 24.327,9.543 ZM15.999,24.010 C11.575,24.010 7.988,20.423 7.988,15.999 C7.988,11.574 11.575,7.988 15.999,7.988 C20.424,7.988 24.010,11.574 24.010,15.999 C24.010,20.423 20.424,24.010 15.999,24.010 ZM15.999,10.799 C13.128,10.799 10.799,13.127 10.799,15.999 C10.799,18.871 13.128,21.199 15.999,21.199 C18.871,21.199 21.199,18.871 21.199,15.999 C21.199,13.127 18.871,10.799 15.999,10.799 Z"/>
</svg>