<svg 
 xmlns="http://www.w3.org/2000/svg"
 xmlns:xlink="http://www.w3.org/1999/xlink"
 width="37px" height="27px">
<path fill-rule="evenodd"  fill="rgb(117, 87, 151)"
 d="M35.522,11.594 L20.733,26.480 C20.399,26.816 19.946,27.004 19.474,27.004 C19.002,27.004 18.550,26.816 18.216,26.479 L17.189,25.446 L16.161,26.480 C15.828,26.816 15.375,27.004 14.903,27.004 C14.431,27.004 13.978,26.816 13.644,26.479 L12.583,25.411 L11.522,26.480 C11.189,26.816 10.736,27.004 10.264,27.004 C9.792,27.004 9.339,26.816 9.005,26.479 L0.521,17.940 C-0.174,17.240 -0.174,16.106 0.522,15.407 L15.310,0.521 C15.644,0.185 16.097,-0.003 16.569,-0.003 C17.041,-0.003 17.493,0.185 17.827,0.522 L18.888,1.589 L19.949,0.521 C20.283,0.185 20.735,-0.003 21.208,-0.003 C21.680,-0.003 22.132,0.185 22.466,0.522 L23.493,1.556 L24.521,0.521 C24.855,0.185 25.308,-0.003 25.779,-0.003 C26.252,-0.003 26.704,0.185 27.038,0.522 L35.522,9.061 C36.217,9.761 36.217,10.895 35.522,11.594 ZM10.264,25.213 L11.325,24.145 L11.634,23.833 C11.309,23.505 10.894,23.327 10.468,23.282 C9.905,23.223 9.323,23.401 8.893,23.833 L8.893,23.833 L10.264,25.213 ZM3.151,15.294 L1.780,16.673 L3.151,18.053 C3.151,18.053 3.151,18.053 3.151,18.053 C3.907,17.293 3.906,16.055 3.151,15.294 ZM17.629,2.856 L16.569,1.788 L15.198,3.167 C15.564,3.536 16.051,3.739 16.569,3.739 L16.569,3.739 C16.638,3.739 16.704,3.726 16.772,3.719 C17.212,3.673 17.622,3.487 17.939,3.168 L17.629,2.856 ZM19.916,5.157 L18.907,4.142 C18.810,4.240 18.707,4.328 18.601,4.412 C18.042,4.852 17.364,5.097 16.645,5.113 C16.620,5.114 16.595,5.117 16.569,5.117 L16.569,5.117 C16.216,5.117 15.872,5.060 15.546,4.953 C15.055,4.793 14.605,4.520 14.230,4.142 L4.118,14.319 C4.119,14.319 4.119,14.319 4.119,14.319 C4.511,14.714 4.782,15.184 4.936,15.683 C5.134,16.328 5.134,17.020 4.936,17.663 C4.782,18.163 4.511,18.633 4.118,19.028 L7.925,22.859 C8.307,22.474 8.761,22.207 9.243,22.050 C9.600,21.934 9.971,21.880 10.342,21.889 C11.034,21.905 11.722,22.138 12.296,22.589 C12.402,22.672 12.505,22.761 12.603,22.859 C12.603,22.859 12.603,22.859 12.603,22.859 L13.611,21.844 L14.240,21.211 L14.869,20.578 L22.714,12.681 L22.714,12.681 C21.424,11.383 21.424,9.271 22.714,7.973 L21.174,6.423 L20.545,5.790 L19.916,5.157 ZM23.493,4.089 L22.864,3.455 L22.235,2.823 L21.208,1.788 L20.147,2.856 L21.174,3.890 L21.803,4.524 L22.432,5.157 L26.311,9.061 C27.007,9.761 27.007,10.895 26.311,11.594 L16.128,21.844 L15.499,22.477 L14.869,23.111 L13.842,24.145 L14.903,25.213 L15.930,24.178 L16.560,23.545 L17.189,22.912 L29.692,10.328 L23.493,4.089 ZM23.682,11.707 L25.053,10.328 L23.682,8.948 C23.682,8.948 23.682,8.948 23.682,8.948 C22.926,9.708 22.926,10.946 23.682,11.707 ZM25.779,1.788 L24.752,2.823 L30.950,9.061 C31.645,9.761 31.645,10.895 30.950,11.594 L18.447,24.178 L19.474,25.213 L34.263,10.328 L25.779,1.788 ZM13.416,18.305 C13.115,18.305 12.818,18.275 12.528,18.220 C11.646,18.054 10.834,17.639 10.167,17.014 C10.126,16.974 10.081,16.939 10.041,16.898 C9.766,16.621 9.536,16.316 9.342,15.996 C9.033,15.484 8.825,14.927 8.723,14.354 C8.652,13.955 8.633,13.551 8.662,13.149 C8.705,12.555 8.858,11.970 9.118,11.423 C9.345,10.946 9.649,10.498 10.042,10.103 C10.430,9.712 10.875,9.403 11.357,9.170 C11.890,8.912 12.467,8.757 13.069,8.713 C13.184,8.705 13.299,8.696 13.416,8.696 C13.705,8.696 13.988,8.725 14.266,8.775 C14.798,8.871 15.306,9.058 15.773,9.326 C16.034,9.475 16.281,9.649 16.513,9.849 C16.608,9.931 16.702,10.013 16.792,10.103 C16.914,10.226 17.027,10.356 17.134,10.489 C17.817,11.340 18.190,12.391 18.190,13.500 C18.190,14.783 17.694,15.990 16.792,16.897 C15.890,17.805 14.691,18.305 13.416,18.305 ZM16.157,11.473 C16.055,11.335 15.946,11.202 15.823,11.078 C15.733,10.987 15.639,10.904 15.542,10.826 C15.300,10.630 15.036,10.471 14.756,10.350 C14.338,10.170 13.885,10.074 13.416,10.074 C13.255,10.074 13.095,10.089 12.938,10.112 C12.211,10.214 11.538,10.545 11.009,11.078 C10.468,11.623 10.151,12.307 10.051,13.017 C9.965,13.632 10.043,14.266 10.288,14.847 C10.407,15.127 10.563,15.394 10.759,15.640 C10.836,15.738 10.919,15.833 11.009,15.924 C11.132,16.047 11.265,16.157 11.402,16.259 C11.983,16.690 12.681,16.928 13.416,16.928 C14.326,16.928 15.180,16.571 15.823,15.923 C16.467,15.276 16.821,14.415 16.821,13.500 C16.821,12.760 16.585,12.058 16.157,11.473 Z"/>
</svg>