<svg 
 xmlns="http://www.w3.org/2000/svg"
 xmlns:xlink="http://www.w3.org/1999/xlink"
 width="25px" height="27px">
<path fill-rule="evenodd"  fill="rgb(255, 255, 255)"
 d="M21.964,2.674 C20.980,1.837 19.827,1.332 18.588,1.009 C15.476,0.199 12.322,-0.003 9.135,0.427 C7.519,0.646 5.959,1.071 4.523,1.873 C2.836,2.815 1.676,4.172 1.163,6.055 C0.797,7.397 0.620,8.764 0.550,10.148 C0.448,12.191 0.515,14.219 1.039,16.212 C1.647,18.517 2.967,20.215 5.230,21.119 C5.477,21.218 5.709,21.353 5.954,21.455 C6.181,21.549 6.250,21.699 6.249,21.943 C6.238,23.537 6.243,25.132 6.243,26.797 C6.837,26.226 7.248,25.806 7.546,25.470 C8.437,24.467 9.280,23.632 10.210,22.678 C10.681,22.194 10.483,22.218 11.213,22.230 C12.073,22.244 13.424,22.278 14.278,22.211 C15.908,22.084 17.525,21.877 19.098,21.407 C21.095,20.809 22.696,19.744 23.508,17.733 C23.723,17.199 23.930,16.662 24.066,16.103 C24.846,12.901 24.742,9.694 24.090,6.491 C23.788,5.003 23.148,3.682 21.964,2.674 ZM12.035,4.615 C12.052,4.306 12.229,4.187 12.521,4.201 C15.001,4.319 16.869,5.053 18.305,6.979 C19.147,8.107 19.601,9.631 19.647,11.046 C19.647,11.256 19.656,11.467 19.644,11.676 C19.631,11.910 19.528,12.089 19.264,12.091 C18.997,12.094 18.866,11.950 18.848,11.680 C18.779,10.638 18.576,9.623 18.176,8.652 C17.401,6.774 15.915,5.761 14.006,5.273 C13.501,5.143 12.990,5.037 12.469,4.995 C12.233,4.975 12.018,4.926 12.035,4.615 ZM14.538,7.238 C14.034,7.062 13.522,6.921 12.992,6.844 C12.736,6.807 12.552,6.672 12.599,6.373 C12.644,6.091 12.829,5.979 13.100,6.005 C14.831,6.169 16.184,6.796 17.115,8.290 C17.551,8.988 17.806,9.977 17.768,10.720 C17.741,11.246 17.661,11.381 17.359,11.373 C16.919,11.361 16.984,11.001 16.950,10.736 C16.898,10.328 16.809,9.931 16.698,9.537 C16.378,8.399 15.662,7.630 14.538,7.238 ZM16.003,10.146 C15.987,10.292 15.985,10.392 15.962,10.488 C15.916,10.681 15.798,10.797 15.587,10.800 C15.375,10.803 15.260,10.677 15.204,10.495 C15.166,10.369 15.156,10.234 15.130,10.104 C14.996,9.410 14.597,8.955 13.904,8.769 C13.818,8.746 13.730,8.734 13.645,8.711 C13.426,8.651 13.154,8.646 13.144,8.327 C13.137,8.063 13.339,7.906 13.702,7.883 C13.950,7.869 14.333,7.989 14.555,8.097 C15.466,8.540 15.891,9.162 16.003,10.146 ZM19.648,17.467 C19.167,18.551 18.344,19.267 17.193,19.591 C16.776,19.708 16.371,19.607 15.990,19.446 C10.742,17.221 6.948,13.549 4.801,8.250 C4.645,7.867 4.555,7.469 4.569,7.104 C4.572,5.739 5.774,4.477 7.092,4.405 C7.457,4.385 7.772,4.508 8.034,4.753 C8.961,5.618 9.706,6.620 10.250,7.762 C10.545,8.381 10.422,8.817 9.890,9.261 C9.805,9.332 9.713,9.394 9.624,9.460 C8.918,9.974 8.760,10.499 9.097,11.309 C9.651,12.638 10.552,13.681 11.768,14.453 C12.227,14.745 12.696,15.022 13.225,15.175 C13.709,15.315 14.098,15.165 14.409,14.784 C14.444,14.741 14.476,14.696 14.509,14.651 C15.186,13.718 15.910,13.556 16.891,14.162 C17.732,14.682 18.524,15.275 19.278,15.915 C19.788,16.349 19.918,16.859 19.648,17.467 Z"/>
</svg>