<svg 
 xmlns="http://www.w3.org/2000/svg"
 xmlns:xlink="http://www.w3.org/1999/xlink"
 width="33px" height="33px">
<path fill-rule="evenodd"  fill="rgb(255, 255, 255)"
 d="M32.528,23.159 C32.450,24.868 32.179,26.036 31.781,27.058 C31.370,28.113 30.821,29.009 29.927,29.902 C29.034,30.795 28.137,31.344 27.081,31.754 C26.058,32.152 24.890,32.423 23.179,32.501 C21.465,32.579 20.918,32.598 16.553,32.598 C12.188,32.598 11.641,32.579 9.927,32.501 C8.216,32.423 7.047,32.152 6.025,31.754 C4.968,31.344 4.072,30.795 3.178,29.902 C2.285,29.009 1.735,28.113 1.325,27.058 C0.927,26.036 0.656,24.868 0.578,23.159 C0.499,21.446 0.481,20.899 0.481,16.538 C0.481,12.176 0.499,11.629 0.578,9.916 C0.656,8.206 0.927,7.039 1.325,6.017 C1.735,4.961 2.285,4.066 3.178,3.173 C4.072,2.280 4.968,1.731 6.025,1.320 C7.047,0.923 8.216,0.652 9.927,0.574 C11.641,0.496 12.188,0.477 16.553,0.477 C20.918,0.477 21.465,0.496 23.179,0.574 C24.890,0.652 26.058,0.923 27.081,1.320 C28.137,1.731 29.034,2.280 29.927,3.173 C30.821,4.066 31.370,4.961 31.781,6.017 C32.179,7.039 32.450,8.206 32.528,9.916 C32.606,11.629 32.625,12.176 32.625,16.538 C32.625,20.899 32.606,21.446 32.528,23.159 ZM29.635,10.048 C29.564,8.482 29.302,7.631 29.082,7.066 C28.790,6.316 28.442,5.781 27.880,5.219 C27.317,4.657 26.782,4.309 26.032,4.018 C25.465,3.797 24.614,3.536 23.047,3.464 C21.353,3.387 20.844,3.371 16.553,3.371 C12.262,3.371 11.753,3.387 10.058,3.464 C8.492,3.536 7.641,3.797 7.074,4.018 C6.324,4.309 5.789,4.657 5.226,5.219 C4.664,5.781 4.315,6.316 4.024,7.066 C3.804,7.631 3.542,8.482 3.470,10.048 C3.393,11.741 3.377,12.249 3.377,16.538 C3.377,20.825 3.393,21.334 3.470,23.027 C3.542,24.593 3.804,25.443 4.024,26.009 C4.315,26.759 4.664,27.294 5.226,27.856 C5.789,28.418 6.324,28.766 7.074,29.057 C7.641,29.277 8.492,29.539 10.058,29.611 C11.753,29.688 12.261,29.704 16.553,29.704 C20.845,29.704 21.353,29.688 23.047,29.611 C24.614,29.539 25.465,29.277 26.032,29.057 C26.782,28.766 27.317,28.418 27.880,27.856 C28.442,27.294 28.790,26.759 29.082,26.009 C29.302,25.443 29.564,24.593 29.635,23.027 C29.713,21.334 29.729,20.825 29.729,16.538 C29.729,12.249 29.713,11.741 29.635,10.048 ZM25.132,9.892 C24.067,9.892 23.204,9.029 23.204,7.965 C23.204,6.900 24.067,6.037 25.132,6.037 C26.197,6.037 27.061,6.900 27.061,7.965 C27.061,9.029 26.197,9.892 25.132,9.892 ZM16.553,24.785 C11.995,24.785 8.300,21.092 8.300,16.538 C8.300,11.983 11.995,8.291 16.553,8.291 C21.111,8.291 24.806,11.983 24.806,16.538 C24.806,21.092 21.111,24.785 16.553,24.785 ZM16.553,11.184 C13.594,11.184 11.196,13.581 11.196,16.538 C11.196,19.494 13.594,21.891 16.553,21.891 C19.512,21.891 21.910,19.494 21.910,16.538 C21.910,13.581 19.512,11.184 16.553,11.184 Z"/>
</svg>