<svg 
 xmlns="http://www.w3.org/2000/svg"
 xmlns:xlink="http://www.w3.org/1999/xlink"
 width="272px" height="257px">
<path fill-rule="evenodd"  fill="rgb(255, 255, 255)"
 d="M269.514,92.753 C267.402,97.165 263.924,101.090 259.370,103.997 C258.419,104.603 257.432,105.160 256.420,105.677 C255.654,103.410 254.544,101.208 253.089,99.113 C252.957,98.922 252.608,99.113 252.741,99.303 C254.177,101.374 255.301,103.573 256.077,105.851 C251.346,108.201 246.017,109.611 240.592,110.333 C240.331,110.367 240.345,110.711 240.609,110.676 C246.081,109.949 251.455,108.476 256.176,106.147 C257.257,109.466 257.587,112.945 257.000,116.439 C255.750,123.887 251.033,130.683 245.091,136.306 C238.755,142.302 230.983,147.280 222.558,151.068 C215.405,154.284 207.485,156.934 199.376,157.577 C193.346,158.056 187.271,158.126 181.234,157.965 C173.833,157.769 166.435,157.214 159.160,156.136 C152.142,155.096 145.106,153.620 138.660,151.096 C133.340,149.012 128.072,146.104 125.108,141.767 C123.222,139.007 122.580,135.983 122.816,132.939 C123.446,130.985 123.946,129.005 124.304,127.016 C124.345,126.794 123.989,126.736 123.902,126.945 C123.091,128.883 122.562,130.891 122.401,132.891 C118.374,145.343 108.915,156.856 95.111,163.139 C86.137,167.223 75.833,168.783 65.800,167.640 C62.394,167.252 59.008,166.723 55.950,165.409 C53.345,164.291 50.950,162.859 48.711,161.298 C43.195,157.458 38.418,152.869 34.278,147.989 C30.000,142.947 26.246,137.483 23.785,131.628 C21.833,126.982 20.345,121.586 22.072,116.674 C23.792,111.777 28.729,108.971 34.501,107.860 C34.707,107.819 34.674,107.559 34.484,107.528 C31.481,107.035 28.510,106.399 25.630,105.553 C15.373,102.537 6.503,96.758 2.545,88.153 C-1.200,80.013 -0.450,70.861 2.329,62.501 C5.540,52.838 11.395,43.747 18.693,35.742 C26.058,27.664 35.064,20.416 45.528,15.157 C54.991,10.401 65.952,7.191 77.036,7.801 C89.079,8.464 99.451,13.737 107.234,21.099 C107.329,21.189 107.490,21.131 107.558,21.048 C116.047,10.607 128.575,2.341 143.795,0.445 C160.225,-1.602 176.749,3.605 188.851,12.525 C201.778,22.051 209.932,35.725 210.210,50.284 C210.211,50.387 210.356,50.485 210.479,50.437 C220.011,46.719 230.787,44.873 241.059,46.956 C252.731,49.323 262.160,56.343 267.365,65.196 C272.281,73.562 273.784,83.837 269.514,92.753 ZM86.500,180.000 C102.240,180.000 115.000,190.521 115.000,203.500 C115.000,216.478 102.240,227.000 86.500,227.000 C70.760,227.000 58.000,216.478 58.000,203.500 C58.000,190.521 70.760,180.000 86.500,180.000 ZM106.500,241.000 C110.642,241.000 114.000,244.582 114.000,249.000 C114.000,253.418 110.642,257.000 106.500,257.000 C102.358,257.000 99.000,253.418 99.000,249.000 C99.000,244.582 102.358,241.000 106.500,241.000 Z"/>
</svg>