<svg 
 xmlns="http://www.w3.org/2000/svg"
 xmlns:xlink="http://www.w3.org/1999/xlink"
 width="272px" height="257px">
<path fill-rule="evenodd"  fill="rgb(255, 255, 255)"
 d="M269.455,88.153 C265.497,96.758 256.627,102.537 246.370,105.553 C243.490,106.399 240.519,107.035 237.516,107.528 C237.326,107.559 237.293,107.819 237.499,107.859 C243.271,108.971 248.208,111.777 249.928,116.674 C251.654,121.586 250.167,126.982 248.215,131.628 C245.754,137.483 242.000,142.947 237.722,147.989 C233.582,152.869 228.805,157.457 223.289,161.298 C221.050,162.858 218.654,164.291 216.050,165.409 C212.992,166.723 209.606,167.252 206.200,167.640 C196.167,168.783 185.863,167.223 176.889,163.139 C163.085,156.856 153.625,145.343 149.599,132.891 C149.438,130.891 148.909,128.883 148.098,126.945 C148.011,126.736 147.654,126.793 147.696,127.016 C148.054,129.005 148.554,130.985 149.184,132.938 C149.420,135.983 148.778,139.007 146.892,141.767 C143.928,146.104 138.660,149.011 133.340,151.096 C126.894,153.619 119.858,155.096 112.840,156.136 C105.565,157.214 98.167,157.768 90.766,157.965 C84.729,158.126 78.654,158.056 72.624,157.577 C64.515,156.934 56.595,154.284 49.442,151.068 C41.017,147.280 33.245,142.302 26.909,136.306 C20.967,130.683 16.250,123.887 15.000,116.439 C14.413,112.945 14.743,109.466 15.824,106.147 C20.545,108.476 25.919,109.948 31.391,110.676 C31.654,110.711 31.669,110.367 31.407,110.333 C25.984,109.611 20.654,108.201 15.923,105.850 C16.699,103.573 17.822,101.374 19.259,99.303 C19.392,99.113 19.043,98.922 18.911,99.113 C17.456,101.208 16.346,103.410 15.580,105.677 C14.568,105.160 13.581,104.603 12.630,103.996 C8.076,101.090 4.598,97.165 2.486,92.753 C-1.784,83.837 -0.281,73.562 4.635,65.196 C9.840,56.343 19.269,49.323 30.941,46.956 C41.213,44.873 51.989,46.718 61.520,50.437 C61.644,50.485 61.789,50.387 61.790,50.283 C62.069,35.725 70.222,22.050 83.148,12.525 C95.251,3.606 111.775,-1.603 128.205,0.445 C143.425,2.341 155.953,10.607 164.442,21.048 C164.510,21.131 164.671,21.189 164.766,21.098 C172.549,13.737 182.921,8.465 194.964,7.800 C206.048,7.190 217.008,10.401 226.472,15.157 C236.936,20.416 245.942,27.663 253.307,35.742 C260.604,43.747 266.460,52.838 269.671,62.501 C272.450,70.861 273.200,80.013 269.455,88.153 ZM185.500,180.000 C201.240,180.000 214.000,190.521 214.000,203.500 C214.000,216.479 201.240,227.000 185.500,227.000 C169.760,227.000 157.000,216.479 157.000,203.500 C157.000,190.521 169.760,180.000 185.500,180.000 ZM165.500,241.000 C169.642,241.000 173.000,244.581 173.000,249.000 C173.000,253.418 169.642,257.000 165.500,257.000 C161.358,257.000 158.000,253.418 158.000,249.000 C158.000,244.581 161.358,241.000 165.500,241.000 Z"/>
</svg>