<svg 
 xmlns="http://www.w3.org/2000/svg"
 xmlns:xlink="http://www.w3.org/1999/xlink"
 width="272px" height="257px">
<path fill-rule="evenodd"  fill="rgb(101, 74, 131)"
 d="M269.455,88.154 C265.497,96.759 256.627,102.538 246.370,105.553 C243.490,106.400 240.519,107.036 237.516,107.528 C237.326,107.560 237.293,107.820 237.499,107.859 C243.271,108.971 248.208,111.777 249.928,116.674 C251.655,121.586 250.167,126.983 248.215,131.628 C245.754,137.483 242.000,142.947 237.723,147.989 C233.582,152.870 228.805,157.458 223.289,161.298 C221.050,162.859 218.655,164.291 216.050,165.409 C212.992,166.723 209.606,167.252 206.200,167.640 C196.167,168.783 185.863,167.223 176.889,163.139 C163.085,156.856 153.626,145.344 149.599,132.891 C149.438,130.891 148.909,128.883 148.098,126.945 C148.011,126.736 147.655,126.793 147.696,127.016 C148.054,129.006 148.554,130.986 149.184,132.939 C149.420,135.983 148.778,139.007 146.892,141.768 C143.928,146.105 138.660,149.012 133.340,151.096 C126.894,153.620 119.858,155.096 112.839,156.137 C105.565,157.215 98.167,157.768 90.766,157.965 C84.729,158.126 78.654,158.056 72.624,157.577 C64.515,156.934 56.595,154.284 49.442,151.068 C41.017,147.280 33.245,142.302 26.910,136.306 C20.967,130.683 16.250,123.888 15.000,116.439 C14.480,113.345 14.683,110.262 15.486,107.291 C15.333,106.680 15.210,106.059 15.131,105.422 C14.280,104.973 13.436,104.511 12.631,103.996 C8.076,101.091 4.598,97.165 2.486,92.754 C-1.784,83.837 -0.281,73.562 4.635,65.197 C9.840,56.343 19.269,49.323 30.941,46.957 C41.213,44.873 51.989,46.718 61.521,50.437 C61.644,50.485 61.789,50.387 61.790,50.284 C62.068,35.726 70.222,22.051 83.148,12.526 C95.251,3.606 111.775,-1.602 128.205,0.445 C143.425,2.342 155.953,10.607 164.442,21.048 C164.510,21.131 164.671,21.190 164.766,21.099 C172.549,13.738 182.922,8.464 194.964,7.801 C206.048,7.191 217.009,10.402 226.472,15.157 C236.936,20.416 245.942,27.664 253.307,35.743 C260.605,43.748 266.460,52.839 269.671,62.502 C272.450,70.861 273.199,80.013 269.455,88.154 ZM185.500,180.000 C201.240,180.000 214.000,190.521 214.000,203.500 C214.000,216.479 201.240,227.000 185.500,227.000 C169.760,227.000 157.000,216.479 157.000,203.500 C157.000,190.521 169.760,180.000 185.500,180.000 ZM165.500,241.000 C169.642,241.000 173.000,244.581 173.000,249.000 C173.000,253.418 169.642,257.000 165.500,257.000 C161.358,257.000 158.000,253.418 158.000,249.000 C158.000,244.581 161.358,241.000 165.500,241.000 Z"/>
</svg>