<svg 
 xmlns="http://www.w3.org/2000/svg"
 xmlns:xlink="http://www.w3.org/1999/xlink"
 width="255px" height="257px">
<path fill-rule="evenodd"  fill="rgb(101, 74, 131)"
 d="M254.213,98.979 C253.703,107.853 249.116,116.293 243.596,123.659 C237.014,132.442 228.617,140.285 219.207,147.035 C209.978,153.656 199.598,159.430 188.169,163.188 C178.644,166.319 167.756,168.256 157.452,166.086 C146.913,163.866 139.181,157.426 134.487,149.445 C134.383,149.267 134.018,149.306 134.021,149.515 C134.078,153.752 132.585,157.865 129.268,161.062 C125.970,164.239 121.361,166.310 116.556,167.560 C104.557,170.680 90.950,169.719 78.809,166.926 C66.240,164.033 53.473,158.777 44.945,150.263 C41.009,146.332 38.091,141.700 36.991,136.690 C35.751,131.043 36.803,125.356 39.227,120.105 C39.308,119.928 39.070,119.787 38.882,119.848 C31.551,122.259 22.928,123.400 15.406,120.387 C2.984,115.408 -0.621,102.377 1.193,92.144 C2.246,86.202 5.047,80.457 9.606,75.833 C12.357,73.043 15.701,70.779 19.419,69.028 C19.969,67.701 20.891,66.545 22.088,65.718 C22.133,65.353 22.178,64.992 22.222,64.584 C22.396,64.307 22.584,64.035 22.788,63.776 C25.223,60.686 25.865,56.236 30.365,54.901 C34.758,53.598 39.521,54.976 43.427,56.904 C43.539,56.960 43.696,56.954 43.769,56.856 C45.386,54.662 47.023,52.478 48.696,50.316 C60.078,35.611 73.314,21.199 91.392,11.789 C100.495,7.051 110.604,3.704 121.242,2.005 C127.225,1.050 133.327,0.557 139.449,0.503 C144.091,0.462 148.606,0.783 153.156,1.692 C162.519,3.563 171.473,7.014 179.676,11.252 C188.470,15.794 196.661,21.317 203.465,27.830 C209.714,33.811 215.086,40.806 217.267,48.536 C219.407,56.116 218.037,63.747 213.256,70.296 C213.160,70.427 213.254,70.602 213.446,70.618 C223.845,71.508 235.101,73.495 243.603,79.043 C251.120,83.950 254.656,91.255 254.213,98.979 ZM113.879,186.808 C129.082,182.734 144.131,189.594 147.490,202.131 C150.849,214.667 141.247,228.132 126.043,232.206 C110.840,236.280 95.792,229.420 92.432,216.884 C89.073,204.347 98.675,190.882 113.879,186.808 ZM148.985,240.553 C152.986,239.481 157.157,242.072 158.301,246.339 C159.444,250.608 157.127,254.935 153.127,256.008 C149.125,257.080 144.955,254.489 143.812,250.222 C142.668,245.954 144.985,241.625 148.985,240.553 Z"/>
</svg>