<svg 
 xmlns="http://www.w3.org/2000/svg"
 xmlns:xlink="http://www.w3.org/1999/xlink"
 width="275px" height="266px">
<path fill-rule="evenodd"  fill="rgb(101, 74, 131)"
 d="M270.288,103.415 C265.027,112.321 255.495,119.383 243.696,121.763 C233.312,123.860 222.418,122.003 212.783,118.262 C212.658,118.214 212.512,118.313 212.510,118.416 C212.229,133.062 203.986,146.817 190.919,156.400 C178.685,165.372 161.980,170.611 145.371,168.552 C129.985,166.644 117.321,158.329 108.739,147.826 C108.671,147.744 108.508,147.684 108.412,147.774 C100.544,155.179 90.058,160.484 77.884,161.152 C66.680,161.766 55.600,158.536 46.034,153.752 C35.455,148.462 26.351,141.171 18.905,133.044 C11.528,124.991 5.610,115.846 2.363,106.126 C-0.446,97.716 -1.204,88.510 2.581,80.321 C6.583,71.665 15.549,65.852 25.918,62.819 C28.830,61.966 31.833,61.327 34.869,60.831 C35.060,60.799 35.093,60.538 34.886,60.499 C29.051,59.380 24.060,56.556 22.321,51.632 C20.576,46.689 22.080,41.261 24.053,36.588 C26.540,30.699 30.336,25.201 34.660,20.130 C38.845,15.220 43.674,10.605 49.250,6.741 C51.514,5.172 53.935,3.731 56.568,2.605 C59.660,1.284 63.082,0.752 66.526,0.362 C76.669,-0.788 87.085,0.781 96.156,4.890 C110.111,11.210 119.674,22.791 123.744,35.317 C123.907,37.330 124.442,39.349 125.261,41.298 C125.349,41.509 125.710,41.450 125.669,41.227 C125.306,39.225 124.801,37.234 124.164,35.269 C123.925,32.206 124.575,29.165 126.481,26.389 C129.477,22.026 134.803,19.100 140.179,17.004 C146.696,14.465 153.809,12.979 160.904,11.934 C168.258,10.849 175.737,10.293 183.219,10.094 C189.321,9.933 195.463,10.003 201.558,10.484 C209.756,11.131 217.762,13.797 224.994,17.033 C233.510,20.843 241.367,25.851 247.771,31.882 C253.779,37.538 258.547,44.375 259.811,51.868 C260.399,55.354 260.074,58.827 259.001,62.142 C259.059,62.386 259.109,62.633 259.153,62.882 C259.175,62.819 259.203,62.757 259.224,62.694 C260.248,63.213 261.245,63.774 262.206,64.384 C266.811,67.307 270.325,71.255 272.462,75.693 C276.779,84.663 275.258,95.000 270.288,103.415 ZM101.879,195.808 C117.083,191.734 132.131,198.595 135.490,211.131 C138.849,223.667 129.247,237.132 114.043,241.206 C98.840,245.280 83.791,238.420 80.432,225.884 C77.073,213.347 86.675,199.882 101.879,195.808 ZM136.985,249.553 C140.986,248.482 145.157,251.072 146.300,255.339 C147.444,259.607 145.127,263.936 141.127,265.008 C137.126,266.080 132.955,263.489 131.811,259.222 C130.668,254.953 132.985,250.625 136.985,249.553 Z"/>
</svg>